<?xml version="1.0" encoding="UTF-8"?>
<svg version="1.1" xmlns="http://www.w3.org/2000/svg" width="515" height="144">
<path d="M0 0 C169.95 0 339.9 0 515 0 C515 47.52 515 95.04 515 144 C345.05 144 175.1 144 0 144 C0 96.48 0 48.96 0 0 Z " fill="#FEFEFE" transform="translate(0,0)"/>
<path d="M0 0 C10.22797665 -0.51951627 19.38717546 3.04300947 27.515625 9.1328125 C35.38639347 16.29548415 40.11438858 25.73083221 41.046875 36.28125 C41.46813692 50.40972658 36.92534201 59.7485211 27.7734375 70.1875 C24.08473769 74.06493028 20.2879575 77.8222993 16.4609375 81.5625 C14.97426801 83.02136546 13.48920332 84.48178297 12.0070343 85.94522095 C10.67690469 87.25773838 9.34189891 88.56530891 8.0065918 89.87255859 C6.06245365 91.88789892 4.3863013 93.90406072 2.7734375 96.1875 C-1.12582901 94.6313707 -3.23346459 92.1889501 -5.9765625 89.0625 C-9.96060326 84.57028723 -14.10225198 80.31235142 -18.41235352 76.13183594 C-30.86685527 64.01332407 -30.86685527 64.01332407 -34.2265625 56.1875 C-34.72349609 55.06601563 -34.72349609 55.06601563 -35.23046875 53.921875 C-38.83775904 44.15145645 -39.01919438 33.29748897 -34.81640625 23.76538086 C-29.1345083 12.27331018 -21.41581607 5.46769591 -9.2265625 1.1875 C-6.09067481 0.47229754 -3.18609786 0.26830298 0 0 Z " fill="#A0C0FD" transform="translate(117.2265625,14.8125)"/>
<path d="M0 0 C4.40681134 1.64321779 7.09587247 4.98875417 10.1875 8.375 C10.73341797 8.9525 11.27933594 9.53 11.84179688 10.125 C12.36193359 10.68960937 12.88207031 11.25421875 13.41796875 11.8359375 C13.89000732 12.34688965 14.3620459 12.8578418 14.84838867 13.38427734 C16.19291677 15.27066424 16.66374987 16.71446143 17 19 C16.22265625 21.70703125 16.22265625 21.70703125 15.0625 24.8125 C10.77157356 38.07265463 12.46640661 50.19350507 18.5625 62.4375 C21.65875754 67.96989925 25.64426174 72.1651437 30.12109375 76.58984375 C32 79 32 79 32.03125 81.06640625 C28.42852415 87.82151721 21.30283469 91.77854226 14.359375 94.30859375 C4.65879141 97.15131444 -6.29295477 97.09869567 -15.5703125 92.8125 C-25.60369196 87.16680636 -33.31253441 79.41899705 -36.53540039 68.12353516 C-38.98349079 56.93410254 -38.07378094 45.15308179 -32.328125 35.25 C-28.0759587 29.31408999 -23.18124332 24.12602581 -18 19 C-17.28972656 18.27683594 -16.57945313 17.55367187 -15.84765625 16.80859375 C-14.24800457 15.18794008 -12.63204111 13.5879319 -11 12 C-7.08739296 8.1828224 -3.50910036 4.18439115 0 0 Z " fill="#A0C1FF" transform="translate(62,15)"/>
<path d="M0 0 C6.28406737 4.75730453 11.7751657 10.73282739 13.21875 18.6796875 C13.73656512 24.62182819 13.77884371 30.1937724 11.21875 35.6796875 C10.92355469 36.31519531 10.62835938 36.95070312 10.32421875 37.60546875 C6.42985718 44.91255707 0.14491596 48.19045214 -7.40625 51.0546875 C-16.51807432 52.74206237 -24.24765329 51.2999728 -32.0859375 46.171875 C-39.10685027 40.47566275 -43.02187847 33.50158259 -44.01953125 24.5390625 C-44.31844877 16.04351185 -41.12168657 9.39861955 -35.42578125 3.18359375 C-26.19136427 -5.26118187 -10.65715009 -6.28771855 0 0 Z " fill="#425069" transform="translate(133.78125,31.3203125)"/>
<path d="M0 0 C2.64 0 5.28 0 8 0 C7.60244664 3.89602291 7.01874536 6.95726058 5.4375 10.5625 C3.98192907 14.04321309 3.72777239 16.27955605 4 20 C2.515 20.495 2.515 20.495 1 21 C-0.6974035 24.00770784 -0.6974035 24.00770784 -2.1875 27.5625 C-2.71730469 28.76003906 -3.24710937 29.95757812 -3.79296875 31.19140625 C-4.19128906 32.11824219 -4.58960938 33.04507813 -5 34 C-4.05898438 33.52949219 -3.11796875 33.05898437 -2.1484375 32.57421875 C0.234375 31.3828125 2.6171875 30.19140625 5 29 C5 32 5 32 3.6796875 33.53515625 C-1.55167041 37.96256089 -5.93503111 40.41558641 -13 40 C-13.66 38.68 -14.32 37.36 -15 36 C-16.0725 36.66 -17.145 37.32 -18.25 38 C-23.53540642 40.64270321 -29.21200497 41.12452475 -35 40 C-37.14453125 38 -37.14453125 38 -39 36 C-42.45749949 35.33323122 -42.45749949 35.33323122 -46 36 C-46.825 36.66 -47.65 37.32 -48.5 38 C-51.77629128 40.62103303 -53.9156949 40.32033766 -58 40 C-58.20496094 40.63808594 -58.40992188 41.27617188 -58.62109375 41.93359375 C-58.89050781 42.75988281 -59.15992188 43.58617187 -59.4375 44.4375 C-59.70433594 45.26121094 -59.97117187 46.08492187 -60.24609375 46.93359375 C-61 49 -61 49 -62 50 C-63.51928038 50.07179964 -65.04167482 50.08392007 -66.5625 50.0625 C-67.38878906 50.05347656 -68.21507812 50.04445312 -69.06640625 50.03515625 C-69.70449219 50.02355469 -70.34257812 50.01195312 -71 50 C-61.94375 22.94375 -61.94375 22.94375 -56 17 C-53.66666667 17 -51.33333333 17 -49 17 C-48.34 16.67 -47.68 16.34 -47 16 C-44 15.8125 -44 15.8125 -41 16 C-40.34 16.66 -39.68 17.32 -39 18 C-39.33378491 23.00677362 -40.23038111 27.28101628 -42 32 C-37.99555603 30.28380973 -36.46904239 28.3260642 -34.5625 24.5625 C-32.3319945 20.32246786 -30.51578121 17.99736477 -26 16 C-21.23217357 15.37028707 -18.06348317 15.29101122 -14 18 C-13.44492812 21.5683192 -13.75781109 23.51562219 -15.375 26.75 C-18.74452793 29.6381668 -21.48643509 29.75421526 -25.78125 30.3984375 C-28.29494726 30.80887333 -28.29494726 30.80887333 -29.625 33.625 C-29.74875 34.40875 -29.8725 35.1925 -30 36 C-20.31018661 34.22310705 -20.31018661 34.22310705 -12.6875 28.3125 C-10.6582796 24.32921552 -10.3056719 21.4322426 -10 17 C-9.01 16.67 -8.02 16.34 -7 16 C-5.94432469 14.39509525 -5.94432469 14.39509525 -5.17578125 12.40234375 C-4.86962891 11.68369141 -4.56347656 10.96503906 -4.24804688 10.22460938 C-3.93931641 9.46986328 -3.63058594 8.71511719 -3.3125 7.9375 C-2.99216797 7.17888672 -2.67183594 6.42027344 -2.34179688 5.63867188 C-1.55149298 3.76317458 -0.77447803 1.8820877 0 0 Z " fill="#6D6D6D" transform="translate(482,72)"/>
<path d="M0 0 C7.75797477 0.00459269 13.85687368 0.6418739 19.9375 5.6875 C23.49561797 10.10819202 24.46567942 13.31937719 24.30859375 18.9375 C23.80769113 22.69109937 22.52124886 25.42825346 20 28.25 C15.64945454 31.50302149 11.20835669 33.38622948 5.76953125 33.34765625 C4.96708984 33.34443359 4.16464844 33.34121094 3.33789062 33.33789062 C2.50451172 33.32951172 1.67113281 33.32113281 0.8125 33.3125 C-0.4549707 33.30573242 -0.4549707 33.30573242 -1.74804688 33.29882812 C-3.83206155 33.28705403 -5.91603977 33.2691189 -8 33.25 C-8.02465392 28.71102295 -8.04283789 24.17208457 -8.05493164 19.63305664 C-8.0599714 18.08780234 -8.0668032 16.54255284 -8.07543945 14.99731445 C-8.08752076 12.78074971 -8.09323173 10.56424782 -8.09765625 8.34765625 C-8.10281754 7.6528566 -8.10797882 6.95805695 -8.11329651 6.24220276 C-8.11349277 4.5777067 -8.06189129 2.91334501 -8 1.25 C-6.05444689 -0.69555311 -2.57505213 0.03065538 0 0 Z " fill="#A6C5FF" transform="translate(187,47.75)"/>
<path d="M0 0 C1 1 1 1 1.0625 3.5625 C1.041875 4.366875 1.02125 5.17125 1 6 C1.556875 5.484375 2.11375 4.96875 2.6875 4.4375 C5 3 5 3 7.75 3.3125 C8.4925 3.539375 9.235 3.76625 10 4 C10.80967438 6.91482778 11.21845993 8.46113217 10.0625 11.3125 C9.5365625 12.1478125 9.5365625 12.1478125 9 13 C9.94875 12.79375 10.8975 12.5875 11.875 12.375 C12.90625 12.25125 13.9375 12.1275 15 12 C15.66 12.66 16.32 13.32 17 14 C16.67028521 17.29714793 16.3773161 18.6226839 14 21 C10.875 21.125 10.875 21.125 8 21 C8.103125 21.886875 8.20625 22.77375 8.3125 23.6875 C8 27 8 27 5.875 29.9375 C3 32 3 32 -0.125 32 C-3 31 -3 31 -4.36328125 29.5 C-7.04198521 27.04505413 -10.2251969 27.11803392 -13.72265625 26.625 C-16 26 -16 26 -18 23 C-18.375 19.5625 -18.375 19.5625 -18 16 C-16 13.5625 -16 13.5625 -14 12 C-14.99 11.34 -15.98 10.68 -17 10 C-17.3125 6.5 -17.3125 6.5 -17 3 C-16.34 2.34 -15.68 1.68 -15 1 C-12.06546739 1.36681658 -11.13562754 1.86437246 -9 4 C-8.71125 3.360625 -8.4225 2.72125 -8.125 2.0625 C-6.01817082 -1.80002016 -3.84794542 -0.98665267 0 0 Z " fill="#495874" transform="translate(121,40)"/>
<path d="M0 0 C4.12326498 1.7409341 6.69835882 4.16393137 9 8 C9.73654211 12.034614 9.42172687 15.09629956 7.6875 18.8125 C4.75270187 22.61686795 2.92573851 24.55206717 -2.015625 25.30859375 C-6.65879958 25.57646921 -9.3621234 25.22407468 -13 22.1875 C-16.27708105 19.11523652 -16.9108348 16.76427314 -17.4375 12.25 C-17.41253207 7.74744944 -15.51128348 5.53249625 -12.5078125 2.34765625 C-8.86726786 -0.90619842 -4.63436451 -0.44251744 0 0 Z " fill="#A3C3FF" transform="translate(231,56)"/>
<path d="M0 0 C4.38773175 2.19386588 7.09334197 4.44520582 9 9 C9.54223844 13.26044487 9.30065535 15.42096006 7.3125 19.25 C4.43867816 22.66751786 2.39631627 24.68572901 -2.14453125 25.28125 C-6.88298632 25.46984523 -10.2635721 25.18695321 -14 22 C-17.18659709 18.26398962 -17.46615074 14.88577152 -17.28515625 10.1484375 C-16.73393338 5.99538846 -14.98816906 3.84285008 -11.875 1.1875 C-7.83285584 -0.48208128 -4.31174193 -0.68440348 0 0 Z " fill="#A4C3FF" transform="translate(290,56)"/>
<path d="M0 0 C2.64 0 5.28 0 8 0 C7.60244664 3.89602291 7.01874536 6.95726058 5.4375 10.5625 C3.98192907 14.04321309 3.72777239 16.27955605 4 20 C3.01 20.33 2.02 20.66 1 21 C-0.6974035 24.00770784 -0.6974035 24.00770784 -2.1875 27.5625 C-2.71730469 28.76003906 -3.24710937 29.95757812 -3.79296875 31.19140625 C-4.19128906 32.11824219 -4.58960938 33.04507813 -5 34 C-4.05898438 33.52949219 -3.11796875 33.05898437 -2.1484375 32.57421875 C1.42578125 30.78710938 1.42578125 30.78710938 5 29 C5 32 5 32 3.6796875 33.53515625 C-1.55167041 37.96256089 -5.93503111 40.41558641 -13 40 C-13.66 38.68 -14.32 37.36 -15 36 C-15.66 36 -16.32 36 -17 36 C-15.94152092 33.00097593 -14.83216062 30.77112812 -12.9375 28.1875 C-10.53512798 24.23521055 -10.31516181 21.56984626 -10 17 C-9.01 16.67 -8.02 16.34 -7 16 C-5.94432469 14.39509525 -5.94432469 14.39509525 -5.17578125 12.40234375 C-4.86962891 11.68369141 -4.56347656 10.96503906 -4.24804688 10.22460938 C-3.93931641 9.46986328 -3.63058594 8.71511719 -3.3125 7.9375 C-2.99216797 7.17888672 -2.67183594 6.42027344 -2.34179688 5.63867188 C-1.55149298 3.76317458 -0.77447803 1.8820877 0 0 Z " fill="#6B6B6B" transform="translate(482,72)"/>
<path d="M0 0 C2.97361086 2.21563162 4.36959793 3.73919585 6 7 C6.08308638 8.37548156 6.10736016 9.75485796 6.09765625 11.1328125 C6.09443359 11.93847656 6.09121094 12.74414062 6.08789062 13.57421875 C6.07951172 14.41597656 6.07113281 15.25773437 6.0625 16.125 C6.05798828 16.97449219 6.05347656 17.82398437 6.04882812 18.69921875 C6.03702874 20.79950909 6.01909306 22.8997633 6 25 C2.66666667 25 -0.66666667 25 -4 25 C-5.155 25.04125 -6.31 25.0825 -7.5 25.125 C-10.79317267 25.00738669 -12.35460093 24.86157712 -15 23 C-17.178657 19.73201451 -17.72208564 18.79094962 -17 15 C-14.16399527 11.55080506 -12.62417946 10.17823643 -8.15234375 9.6875 C-5.41705876 9.6875 -2.72598438 9.78172723 0 10 C-0.66 8.68 -1.32 7.36 -2 6 C-3.43739513 5.97287934 -4.87493863 5.95354933 -6.3125 5.9375 C-7.11300781 5.92589844 -7.91351563 5.91429687 -8.73828125 5.90234375 C-11.16861334 5.90342145 -11.16861334 5.90342145 -14 7 C-14.33 5.35 -14.66 3.7 -15 2 C-10.34186237 -1.10542508 -5.45168836 -0.74307763 0 0 Z " fill="#A6C5FF" transform="translate(392,56)"/>
<path d="M0 0 C3.04256512 2.05196252 4.27398581 3.43577165 5.6875 6.8125 C5.6875 8.7925 5.6875 10.7725 5.6875 12.8125 C-0.5825 12.8125 -6.8525 12.8125 -13.3125 12.8125 C-11.8125 16.8125 -11.8125 16.8125 -9.3125 17.8125 C-5.47313232 17.9546988 -1.99233361 17.99004676 1.6875 16.8125 C2.3475 18.1325 3.0075 19.4525 3.6875 20.8125 C-1.03682955 23.64709773 -4.90313212 24.78424273 -10.3125 23.8125 C-14.67295847 21.59113437 -17.44527421 19.37682971 -19.3125 14.8125 C-19.89684824 10.81945366 -19.70045434 7.73133924 -18.125 4 C-13.12650452 -2.03266696 -7.06594168 -2.53307343 0 0 Z " fill="#A5C4FF" transform="translate(367.3125,57.1875)"/>
<path d="M0 0 C1.65018367 0.70770072 3.26026194 1.50765038 4.859375 2.32421875 C4.199375 3.64421875 3.539375 4.96421875 2.859375 6.32421875 C1.61220703 6.18113281 1.61220703 6.18113281 0.33984375 6.03515625 C-0.74683594 5.92429687 -1.83351563 5.8134375 -2.953125 5.69921875 C-4.03207031 5.58320312 -5.11101562 5.4671875 -6.22265625 5.34765625 C-9.33686832 5.04961719 -9.33686832 5.04961719 -12.140625 7.32421875 C-12.13501113 9.29440333 -12.13501113 9.29440333 -11.140625 11.32421875 C-8.26824989 12.55241862 -8.26824989 12.55241862 -4.828125 13.32421875 C-0.12170764 14.50477585 2.83474494 15.41557845 5.859375 19.32421875 C6.421875 22.76171875 6.421875 22.76171875 5.859375 26.32421875 C3.31800341 29.4837618 1.71314841 31.03962761 -2.140625 32.32421875 C-8.36396676 32.83394007 -13.49884029 32.14511111 -19.140625 29.32421875 C-18.810625 27.67421875 -18.480625 26.02421875 -18.140625 24.32421875 C-17.356875 24.65421875 -16.573125 24.98421875 -15.765625 25.32421875 C-11.14700631 26.59832046 -6.89813144 26.49345811 -2.140625 26.32421875 C-1.810625 24.67421875 -1.480625 23.02421875 -1.140625 21.32421875 C-1.94886719 21.081875 -2.75710938 20.83953125 -3.58984375 20.58984375 C-15.11571231 16.97497544 -15.11571231 16.97497544 -18.140625 13.32421875 C-19.203125 9.88671875 -19.203125 9.88671875 -19.140625 6.32421875 C-14.82136705 -0.8745445 -7.80416997 -2.46372519 0 0 Z " fill="#A4C4FF" transform="translate(339.140625,48.67578125)"/>
<path d="M0 0 C13.52506793 -0.40985054 13.52506793 -0.40985054 18 3 C20.68773977 7.03160965 20.67415933 10.26423878 20 15 C17.42668858 19.47946802 15.98667534 20.00532986 11 22 C7.37 22 3.74 22 0 22 C0 14.74 0 7.48 0 0 Z " fill="#FAFCFF" transform="translate(185,54)"/>
<path d="M0 0 C1.65 0 3.3 0 5 0 C5.33 3.96 5.66 7.92 6 12 C6.99 11.34 7.98 10.68 9 10 C14.35002483 9.56854638 17.64735364 9.54348671 22 13 C24.10209857 16.15314785 24.2434761 16.86103081 24.1953125 20.44921875 C24.18886719 21.29677734 24.18242187 22.14433594 24.17578125 23.01757812 C24.15902344 23.89865234 24.14226562 24.77972656 24.125 25.6875 C24.11597656 26.58017578 24.10695313 27.47285156 24.09765625 28.39257812 C24.07409748 30.59532314 24.04120329 32.79752588 24 35 C22.02 35 20.04 35 18 35 C17.505 25.595 17.505 25.595 17 16 C9.6416175 15.18359933 9.6416175 15.18359933 7.04296875 17.515625 C5.62635878 20.89002178 5.431867 24.14170608 5.3125 27.75 C5.27833984 28.44738281 5.24417969 29.14476563 5.20898438 29.86328125 C5.12691705 31.57497108 5.06177081 33.2874576 5 35 C3.35 35 1.7 35 0 35 C0 23.45 0 11.9 0 0 Z " fill="#A3C3FF" transform="translate(447,46)"/>
<path d="M0 0 C4.57593417 1.38215077 7.3817232 3.30632359 10.5625 6.875 C12.26478264 10.57561443 12.35807424 12.18041619 11 16 C9.3125 17.9375 9.3125 17.9375 7 19 C3.9375 18.875 3.9375 18.875 1 18 C0.54882812 17.50757812 0.09765625 17.01515625 -0.3671875 16.5078125 C-3.03892606 14.04060895 -6.22321179 14.11831376 -9.72265625 13.625 C-12 13 -12 13 -14 10 C-14.375 6.5 -14.375 6.5 -14 3 C-9.85307136 -1.06248892 -5.4740879 -0.73152226 0 0 Z " fill="#9DBDFA" transform="translate(117,53)"/>
<path d="M0 0 C1.65 0 3.3 0 5 0 C5.33 0.66 5.66 1.32 6 2 C6.99 1.34 7.98 0.68 9 0 C14.29895331 -0.42733494 17.73394141 -0.51322472 22 3 C23.75175882 5.87456372 24.24311284 7.98210146 24.1953125 11.328125 C24.18886719 12.12734375 24.18242187 12.9265625 24.17578125 13.75 C24.15902344 14.575 24.14226562 15.4 24.125 16.25 C24.11597656 17.09046875 24.10695313 17.9309375 24.09765625 18.796875 C24.07415817 20.86470604 24.03828908 22.93238995 24 25 C22.02 25 20.04 25 18 25 C17.95101563 23.79601562 17.90203125 22.59203125 17.8515625 21.3515625 C17.77653657 19.77601802 17.70098867 18.20049834 17.625 16.625 C17.5940625 15.8309375 17.563125 15.036875 17.53125 14.21875 C17.48183579 9.63332625 17.48183579 9.63332625 15 6 C10.99461442 5.55928403 10.99461442 5.55928403 7.3515625 7.0078125 C5.2310803 10.13337875 5.42438807 13.5271618 5.3125 17.1875 C5.27833984 17.93708984 5.24417969 18.68667969 5.20898438 19.45898438 C5.12665706 21.30546838 5.06164719 23.15270994 5 25 C3.35 25 1.7 25 0 25 C0 16.75 0 8.5 0 0 Z " fill="#A3C3FF" transform="translate(245,56)"/>
<path d="M0 0 C3 1.3125 3 1.3125 5 3 C5.33 3.99 5.66 4.98 6 6 C4.35 6.66 2.7 7.32 1 8 C0.34 7.34 -0.32 6.68 -1 6 C-5.6422434 5.55130827 -5.6422434 5.55130827 -9.9375 7.0625 C-11.6140629 10.11976176 -11.36528977 12.5906288 -11 16 C-10.01951062 18.06402685 -10.01951062 18.06402685 -8 19 C-3.78715363 19.45791808 -0.81208094 18.79392044 3 17 C3.99 17.99 4.98 18.98 6 20 C2.43835394 23.80727683 -0.11028395 25.14139444 -5.3125 25.375 C-8.76492524 25.34126295 -10.73158381 24.92273073 -13.4375 22.75 C-16.81439385 19.12601636 -17.82874435 17.54130086 -18.375 12.625 C-17.83291844 7.3848783 -15.7663297 4.51399689 -11.8125 1.125 C-7.82043614 -0.47182554 -4.24359703 -0.57657568 0 0 Z " fill="#A4C4FF" transform="translate(437,56)"/>
<path d="M0 0 C1.98 0 3.96 0 6 0 C6.33 0.66 6.66 1.32 7 2 C7.99 1.34 8.98 0.68 10 0 C11.32 0 12.64 0 14 0 C14 1.65 14 3.3 14 5 C13.21625 5.28875 12.4325 5.5775 11.625 5.875 C8.90328368 6.84912254 8.90328368 6.84912254 7 9 C6.6936141 11.73434962 6.4886664 14.38279821 6.375 17.125 C6.33632813 17.87910156 6.29765625 18.63320312 6.2578125 19.41015625 C6.16348969 21.27303184 6.08065338 23.13648255 6 25 C4.02 25 2.04 25 0 25 C0 16.75 0 8.5 0 0 Z " fill="#A6C5FF" transform="translate(303,56)"/>
<path d="M0 0 C2.375 1.5625 2.375 1.5625 4 4 C4.56783945 7.97487617 4.62340519 10.06489221 2.375 13.4375 C-0.71685231 15.47161336 -2.36367425 15.60605429 -6 15 C-8.375 13.4375 -8.375 13.4375 -10 11 C-10.56783945 7.02512383 -10.62340519 4.93510779 -8.375 1.5625 C-5.28314769 -0.47161336 -3.63632575 -0.60605429 0 0 Z " fill="#FCFDFF" transform="translate(230,61)"/>
<path d="M0 0 C3.5625 0.5 3.5625 0.5 6 2.125 C8.06041771 5.25683492 8.2392545 6.81544773 7.5625 10.5 C5.5 13.4375 5.5 13.4375 2.5625 15.5 C-1.45784924 15.43185849 -3.5551825 15.3823175 -6.4375 12.5 C-6.76179691 8.47871831 -6.95015295 5.70624224 -5.375 2 C-3.4375 0.5 -3.4375 0.5 0 0 Z " fill="#FDFDFF" transform="translate(285.4375,60.5)"/>
<path d="M0 0 C1.65 0 3.3 0 5 0 C5.33 0.66 5.66 1.32 6 2 C6.5775 1.67 7.155 1.34 7.75 1 C10 0 10 0 14 0 C14 1.65 14 3.3 14 5 C12.2984375 5.680625 12.2984375 5.680625 10.5625 6.375 C6.95278308 7.57095806 6.95278308 7.57095806 6 10 C5.76827173 12.54615009 5.58105471 15.07396225 5.4375 17.625 C5.39431641 18.33140625 5.35113281 19.0378125 5.30664062 19.765625 C5.20055249 21.51018537 5.09977111 23.25506697 5 25 C3.35 25 1.7 25 0 25 C0 16.75 0 8.5 0 0 Z " fill="#A3C3FF" transform="translate(404,56)"/>
<path d="M0 0 C2.375 0.75 2.375 0.75 3.375 1.75 C2.775 8.35 2.775 8.35 0.375 10.75 C-4.18055556 10.19444444 -4.18055556 10.19444444 -5.625 8.75 C-6.08191383 3.49549098 -6.08191383 3.49549098 -4.4375 0.8125 C-2.625 -0.25 -2.625 -0.25 0 0 Z " fill="#9BBBF7" transform="translate(118.625,39.25)"/>
<path d="M0 0 C1.1446875 0.3403125 1.1446875 0.3403125 2.3125 0.6875 C3.0625 2.875 3.0625 2.875 3.3125 5.6875 C1.375 8.5 1.375 8.5 -0.6875 10.6875 C-2.3375 10.3575 -3.9875 10.0275 -5.6875 9.6875 C-6.04924071 3.29674751 -6.04924071 3.29674751 -4.5 0.6875 C-2.6875 -0.3125 -2.6875 -0.3125 0 0 Z " fill="#9BBCF8" transform="translate(128.6875,43.3125)"/>
<path d="M0 0 C1.23556641 0.01740234 1.23556641 0.01740234 2.49609375 0.03515625 C3.32238281 0.04417969 4.14867187 0.05320312 5 0.0625 C5.63808594 0.07410156 6.27617187 0.08570312 6.93359375 0.09765625 C6.62109375 2.47265625 6.62109375 2.47265625 5.93359375 5.09765625 C2.70985698 7.2468141 1.66655701 7.48052428 -2.06640625 7.09765625 C-2.72640625 6.43765625 -3.38640625 5.77765625 -4.06640625 5.09765625 C-3.31779097 0.15679541 -3.31779097 0.15679541 0 0 Z " fill="#F6F9FF" transform="translate(385.06640625,69.90234375)"/>
<path d="M0 0 C0.86625 0.3403125 0.86625 0.3403125 1.75 0.6875 C2.4375 3 2.4375 3 2.75 5.6875 C1.625 7.5 1.625 7.5 -0.25 8.6875 C-2.875 8.9375 -2.875 8.9375 -5.25 8.6875 C-6.25 7.6875 -6.25 7.6875 -6.5625 5.3125 C-6.25 2.6875 -6.25 2.6875 -4.5 0.8125 C-2.25 -0.3125 -2.25 -0.3125 0 0 Z " fill="#98B7F2" transform="translate(135.25,52.3125)"/>
<path d="M0 0 C3.53571429 0.53571429 3.53571429 0.53571429 5 2 C5.1875 4.9375 5.1875 4.9375 5 8 C4.34 8.66 3.68 9.32 3 10 C0.375 9.625 0.375 9.625 -2 9 C-2.125 5.625 -2.125 5.625 -2 2 C-1.34 1.34 -0.68 0.68 0 0 Z " fill="#9ABAF6" transform="translate(106,41)"/>
<path d="M0 0 C3.625 0.25 3.625 0.25 5.5625 1.625 C6.625 3.25 6.625 3.25 6.625 5.25 C2.335 5.25 -1.955 5.25 -6.375 5.25 C-3.89423077 0.28846154 -3.89423077 0.28846154 0 0 Z " fill="#FDFEFF" transform="translate(360.375,60.75)"/>
<path d="M0 0 C0.66 0 1.32 0 2 0 C1.39085841 3.76314135 0.3120315 6.83503926 -1.375 10.25 C-1.79523438 11.12140625 -2.21546875 11.9928125 -2.6484375 12.890625 C-4 15 -4 15 -7 16 C-5.26017005 10.18738629 -3.1889511 5.16830006 0 0 Z " fill="#E9E9E9" transform="translate(434,92)"/>
<path d="M0 0 C0.99 0 1.98 0 3 0 C2.25 4.75 2.25 4.75 0 7 C-0.99 6.67 -1.98 6.34 -3 6 C-2.01 4.02 -1.02 2.04 0 0 Z " fill="#DFDFDF" transform="translate(458,92)"/>
</svg>
