<svg width="13" height="16" viewBox="0 0 13 16" fill="none" xmlns="http://www.w3.org/2000/svg">
<g clip-path="url(#clip0_83_151)">
<path d="M6.50051 8.00007C7.65768 8.00007 8.59575 7.04494 8.59575 5.86673C8.59575 4.68852 7.65768 3.7334 6.50051 3.7334C5.34334 3.7334 4.40527 4.68852 4.40527 5.86673C4.40527 7.04494 5.34334 8.00007 6.50051 8.00007Z" stroke="#212528" stroke-linecap="round" stroke-linejoin="round"/>
<path d="M11.7383 5.86654C11.7538 6.76405 11.5292 7.64897 11.0887 8.42654C10.0202 10.2399 6.50016 15.4665 6.50016 15.4665C6.50016 15.4665 2.98016 10.2399 1.90111 8.4372C1.46241 7.65545 1.24146 6.76666 1.26206 5.86654C1.26206 4.45205 1.81393 3.09549 2.79626 2.0953C3.7786 1.09511 5.11093 0.533203 6.50016 0.533203C7.88939 0.533203 9.22172 1.09511 10.204 2.0953C11.1864 3.09549 11.7383 4.45205 11.7383 5.86654Z" stroke="#212528" stroke-linecap="round" stroke-linejoin="round"/>
</g>
<defs>
<clipPath id="clip0_83_151">
<rect width="13" height="16" fill="white"/>
</clipPath>
</defs>
</svg>
